C:\GBW_MyPrograms\PredSim\Subjects\Vitruvian_Man\Demo_TGCS.mot
version=1
nRows=9
nColumns=31
inDegrees=yes
endheader
                time	         pelvis_tilt	           pelvis_tx	           pelvis_ty	       hip_flexion_r	        knee_angle_r	       ankle_angle_r	       hip_flexion_l	        knee_angle_l	       ankle_angle_l	    lumbar_extension	          arm_flex_r	          arm_flex_l	hamstrings_r/activation	bifemsh_r/activation	glut_max_r/activation	iliopsoas_r/activation	rect_fem_r/activation	  vasti_r/activation	gastroc_r/activation	 soleus_r/activation	tib_ant_r/activation	hamstrings_l/activation	bifemsh_l/activation	glut_max_l/activation	iliopsoas_l/activation	rect_fem_l/activation	  vasti_l/activation	gastroc_l/activation	 soleus_l/activation	tib_ant_l/activation	
          0.00000000	        -16.82166036	          0.00000000	          0.95893768	         38.58369912	         -3.71567490	        -21.97912171	          7.45170923	        -19.21806995	          7.95181727	         11.94130280	         28.87732936	         28.87734987	          0.01302666	          0.01004785	          0.01000411	          0.01134382	          0.01001409	          0.01061511	          0.01000075	          0.01000066	          0.04947181	          0.02639551	          0.04999151	          0.01000100	          0.11382349	          0.01000364	          0.01000051	          0.17382884	          0.29633834	          0.01000076	
          0.01033567	        -17.05757219	          0.01908806	          0.95681727	         37.21272840	         -2.68271818	        -20.35117989	          7.59989491	        -21.00330580	          6.74511167	         13.16138566	         27.67344504	         27.67347055	          0.01140379	          0.01001971	          0.01925739	          0.01000453	          0.01001030	          0.01001647	          0.01000528	          0.01000440	          0.04220347	          0.02477546	          0.04638544	          0.01000143	          0.09709853	          0.01000283	          0.01000058	          0.14828590	          0.25279236	          0.01000081	
          0.02067134	        -17.26204863	          0.03781029	          0.95545622	         35.93084448	         -2.37762409	        -18.02987833	          8.04278550	        -23.22527190	          4.98765373	         14.29315978	         26.35200451	         26.35203506	          0.07117820	          0.01006410	          0.06656006	          0.01000130	          0.01000307	          0.01000947	          0.01000148	          0.01000077	          0.04419071	          0.02113557	          0.03957599	          0.01000243	          0.08283133	          0.01000100	          0.01000031	          0.12649608	          0.21564525	          0.01000105	
          0.03100702	        -17.57057211	          0.05514590	          0.95568868	         34.93766607	         -2.07217458	        -16.75683253	          9.05688138	        -25.88505585	          2.20210489	         15.35978128	         24.96838166	         24.96841707	          0.06609710	          0.01002540	          0.07833574	          0.01000156	          0.01000356	          0.01001199	          0.01000146	          0.01000091	          0.03784126	          0.01802993	          0.03376176	          0.01000161	          0.07066062	          0.01000096	          0.01000031	          0.10790827	          0.18395681	          0.01000081	
          0.04134269	        -17.90283367	          0.07105697	          0.95760922	         34.16104325	         -1.92385932	        -15.62608045	         10.46276239	        -28.74168329	         -1.73029288	         16.25824264	         23.56111952	         23.56115963	          0.05638586	          0.01001103	          0.06682627	          0.01000188	          0.01000569	          0.01002309	          0.01000178	          0.01000130	          0.03229985	          0.01538057	          0.02880125	          0.01000127	          0.09237947	          0.03873972	          0.01000058	          0.09205182	          0.15692487	          0.01000031	
          0.05167836	        -18.13367487	          0.08601365	          0.96073905	         33.38640370	         -1.84911419	        -14.57906010	         11.94407958	        -31.50003260	         -6.74649905	         16.90013945	         22.14862246	         22.14866700	          0.04810364	          0.01001313	          0.05701006	          0.01000238	          0.01000597	          0.01001945	          0.01000186	          0.01000128	          0.02882023	          0.01312054	          0.02456967	          0.01000118	          0.07897752	          0.08842254	          0.01374383	          0.07852535	          0.13386518	          0.01000029	
          0.06201403	        -18.24470801	          0.10040785	          0.96450904	         32.53690991	         -1.79345085	        -13.59191113	         13.33731025	        -33.96756926	        -12.45590981	         17.31906012	         20.72883259	         20.72888133	          0.04105062	          0.01001349	          0.04864851	          0.01000237	          0.01000564	          0.01001875	          0.01000194	          0.01000129	          0.02858049	          0.01119271	          0.02096051	          0.01000104	          0.09591143	          0.07550870	          0.01172495	          0.06698664	          0.11419405	          0.07047481	
          0.07234971	        -18.23846049	          0.11443970	          0.96852509	         31.59048375	         -1.73767622	        -12.64634154	         14.58964312	        -36.21748542	        -16.97821658	         17.54720644	         19.31027751	         19.31033015	          0.03851122	          0.01001378	          0.04544465	          0.01000234	          0.01000535	          0.01001830	          0.01000200	          0.01000130	          0.02796607	          0.01000066	          0.01788321	          0.01000101	          0.10351541	          0.07641815	          0.01000372	          0.05714352	          0.09741356	          0.06413813	
          0.08268538	        -18.11199395	          0.12821211	          0.97260562	         30.52898492	         -1.66678148	        -11.73900750	         15.69737144	        -38.30846279	        -20.25549842	         17.59493727	         17.90536214	         17.90541837	          0.03558620	          0.01001440	          0.03991684	          0.01000254	          0.01000538	          0.01001748	          0.01000206	          0.01000131	          0.02747214	          0.01000096	          0.01526793	          0.01000094	          0.11397485	          0.07092956	          0.01000140	          0.04874746	          0.08309894	          0.06678684	
